# xmcd CD database file
#
# Track frame offsets:
#	150
#	17610
#	29145
#	43192
#	59715
#	73365
#	76152
#	83822
#	94067
#	100017
#	115370
#	144487
#	158752
#	177345
#	193085
#	209042
#	223182
#	251765
#	268005
#
# Disc length: 3858 seconds
#
# Revision: 0
# Processed by: cddbd v1.5.1PL2 Copyright (c) Steve Scherf et al.
# Submitted via: CDex 1.51
#
DISCID=250f1013
DTITLE=Lyra and Roark Barron - Lusciousland
DYEAR=1900
DGENRE=New Age
TTITLE0=Lusciousland
TTITLE1=Aurora's Song
TTITLE2=Flower, Fruit, Seed
TTITLE3=Arise America
TTITLE4=LusciousLove
TTITLE5=Hendrix Harp
TTITLE6=Fleeting Glimpse
TTITLE7=Fragments of the One
TTITLE8=Gaia Has Come
TTITLE9=Simple Innocence
TTITLE10=Water Daughter
TTITLE11=Buenagueña
TTITLE12=Rainforest
TTITLE13=Wind Harpmonics
TTITLE14=Water of the Soul
TTITLE15=Amazing Grace
TTITLE16=Into the Deep
TTITLE17=Romance
TTITLE18=Family Snapshots (Wedding, Births)
EXTD=
EXTT0=
EXTT1=
EXTT2=
EXTT3=
EXTT4=
EXTT5=
EXTT6=
EXTT7=
EXTT8=
EXTT9=
EXTT10=
EXTT11=
EXTT12=
EXTT13=
EXTT14=
EXTT15=
EXTT16=
EXTT17=
EXTT18=
PLAYORDER=
